<mxfile host="app.diagrams.net" agent="Mozilla/5.0 (Windows NT 10.0; Win64; x64) AppleWebKit/537.36 (KHTML, like Gecko) Chrome/138.0.0.0 Safari/537.36" version="28.0.7">
  <diagram name="Page-1" id="SOG0pMQ-6cSCJLXPcOdt">
    <mxGraphModel dx="928" dy="525" grid="1" gridSize="10" guides="1" tooltips="1" connect="1" arrows="1" fold="1" page="1" pageScale="1" pageWidth="827" pageHeight="1169" math="0" shadow="0">
      <root>
        <mxCell id="0" />
        <mxCell id="1" parent="0" />
        <mxCell id="lLlvU7RibUyMMaEMwurc-1" value="&lt;font style=&quot;font-size: 19px;&quot;&gt;Student Information System&lt;/font&gt;" style="rounded=1;whiteSpace=wrap;html=1;fillColor=#f8cecc;strokeColor=#b85450;" vertex="1" parent="1">
          <mxGeometry x="254" y="20" width="320" height="40" as="geometry" />
        </mxCell>
        <mxCell id="lLlvU7RibUyMMaEMwurc-14" style="edgeStyle=orthogonalEdgeStyle;rounded=0;orthogonalLoop=1;jettySize=auto;html=1;" edge="1" parent="1" source="lLlvU7RibUyMMaEMwurc-2" target="lLlvU7RibUyMMaEMwurc-15">
          <mxGeometry relative="1" as="geometry">
            <mxPoint x="100" y="250" as="targetPoint" />
          </mxGeometry>
        </mxCell>
        <mxCell id="lLlvU7RibUyMMaEMwurc-2" value="Admin" style="rounded=0;whiteSpace=wrap;html=1;fillColor=#dae8fc;strokeColor=#6c8ebf;" vertex="1" parent="1">
          <mxGeometry x="40" y="120" width="120" height="40" as="geometry" />
        </mxCell>
        <mxCell id="lLlvU7RibUyMMaEMwurc-3" value="" style="endArrow=classic;html=1;rounded=0;exitX=1;exitY=0.5;exitDx=0;exitDy=0;" edge="1" parent="1" source="lLlvU7RibUyMMaEMwurc-2">
          <mxGeometry width="50" height="50" relative="1" as="geometry">
            <mxPoint x="250" y="270" as="sourcePoint" />
            <mxPoint x="250" y="140" as="targetPoint" />
          </mxGeometry>
        </mxCell>
        <mxCell id="lLlvU7RibUyMMaEMwurc-4" value="Login to System" style="ellipse;whiteSpace=wrap;html=1;aspect=fixed;fillColor=#dae8fc;strokeColor=#6c8ebf;" vertex="1" parent="1">
          <mxGeometry x="254" y="100" width="80" height="80" as="geometry" />
        </mxCell>
        <mxCell id="lLlvU7RibUyMMaEMwurc-5" value="" style="endArrow=classic;html=1;rounded=0;exitX=0.5;exitY=1;exitDx=0;exitDy=0;entryX=0.5;entryY=0;entryDx=0;entryDy=0;" edge="1" parent="1" source="lLlvU7RibUyMMaEMwurc-4" target="lLlvU7RibUyMMaEMwurc-6">
          <mxGeometry width="50" height="50" relative="1" as="geometry">
            <mxPoint x="250" y="270" as="sourcePoint" />
            <mxPoint x="310" y="250" as="targetPoint" />
          </mxGeometry>
        </mxCell>
        <mxCell id="lLlvU7RibUyMMaEMwurc-6" value="Check Credentials" style="ellipse;whiteSpace=wrap;html=1;aspect=fixed;fillColor=#dae8fc;strokeColor=#6c8ebf;" vertex="1" parent="1">
          <mxGeometry x="251.5" y="250" width="85" height="85" as="geometry" />
        </mxCell>
        <mxCell id="lLlvU7RibUyMMaEMwurc-7" value="" style="endArrow=classic;html=1;rounded=0;exitX=0.947;exitY=0.231;exitDx=0;exitDy=0;exitPerimeter=0;" edge="1" parent="1" source="lLlvU7RibUyMMaEMwurc-6" target="lLlvU7RibUyMMaEMwurc-8">
          <mxGeometry width="50" height="50" relative="1" as="geometry">
            <mxPoint x="360" y="240" as="sourcePoint" />
            <mxPoint x="420" y="190" as="targetPoint" />
            <Array as="points" />
          </mxGeometry>
        </mxCell>
        <mxCell id="lLlvU7RibUyMMaEMwurc-8" value="Check Roles of Access" style="ellipse;whiteSpace=wrap;html=1;aspect=fixed;fillColor=#dae8fc;strokeColor=#6c8ebf;" vertex="1" parent="1">
          <mxGeometry x="410" y="100" width="80" height="80" as="geometry" />
        </mxCell>
        <mxCell id="lLlvU7RibUyMMaEMwurc-10" value="Manage Modules" style="ellipse;whiteSpace=wrap;html=1;aspect=fixed;fillColor=#dae8fc;strokeColor=#6c8ebf;" vertex="1" parent="1">
          <mxGeometry x="414" y="255" width="80" height="80" as="geometry" />
        </mxCell>
        <mxCell id="lLlvU7RibUyMMaEMwurc-11" value="" style="endArrow=classic;html=1;rounded=0;exitX=0.5;exitY=1;exitDx=0;exitDy=0;" edge="1" parent="1">
          <mxGeometry width="50" height="50" relative="1" as="geometry">
            <mxPoint x="453.5" y="185" as="sourcePoint" />
            <mxPoint x="453.5" y="255" as="targetPoint" />
          </mxGeometry>
        </mxCell>
        <mxCell id="lLlvU7RibUyMMaEMwurc-16" style="edgeStyle=orthogonalEdgeStyle;rounded=0;orthogonalLoop=1;jettySize=auto;html=1;" edge="1" parent="1" source="lLlvU7RibUyMMaEMwurc-15" target="lLlvU7RibUyMMaEMwurc-17">
          <mxGeometry relative="1" as="geometry">
            <mxPoint x="100" y="420" as="targetPoint" />
          </mxGeometry>
        </mxCell>
        <mxCell id="lLlvU7RibUyMMaEMwurc-15" value="Forgot Password" style="ellipse;whiteSpace=wrap;html=1;aspect=fixed;fillColor=#dae8fc;strokeColor=#6c8ebf;" vertex="1" parent="1">
          <mxGeometry x="60" y="252.5" width="80" height="80" as="geometry" />
        </mxCell>
        <mxCell id="lLlvU7RibUyMMaEMwurc-17" value="Send Email&amp;nbsp; &amp;nbsp;to User" style="ellipse;whiteSpace=wrap;html=1;aspect=fixed;fillColor=#dae8fc;strokeColor=#6c8ebf;" vertex="1" parent="1">
          <mxGeometry x="60" y="390" width="80" height="80" as="geometry" />
        </mxCell>
        <mxCell id="lLlvU7RibUyMMaEMwurc-18" value="" style="endArrow=classic;html=1;rounded=0;exitX=0.799;exitY=0.044;exitDx=0;exitDy=0;exitPerimeter=0;entryX=0;entryY=0.5;entryDx=0;entryDy=0;" edge="1" parent="1" source="lLlvU7RibUyMMaEMwurc-10" target="lLlvU7RibUyMMaEMwurc-19">
          <mxGeometry width="50" height="50" relative="1" as="geometry">
            <mxPoint x="370" y="290" as="sourcePoint" />
            <mxPoint x="620" y="120" as="targetPoint" />
          </mxGeometry>
        </mxCell>
        <mxCell id="lLlvU7RibUyMMaEMwurc-19" value="Manage Timetable Details" style="rounded=0;whiteSpace=wrap;html=1;fillColor=#dae8fc;strokeColor=#6c8ebf;" vertex="1" parent="1">
          <mxGeometry x="620" y="125" width="180" height="30" as="geometry" />
        </mxCell>
        <mxCell id="lLlvU7RibUyMMaEMwurc-20" value="Manage Attendence Details" style="rounded=0;whiteSpace=wrap;html=1;fillColor=#dae8fc;strokeColor=#6c8ebf;" vertex="1" parent="1">
          <mxGeometry x="620" y="180" width="180" height="30" as="geometry" />
        </mxCell>
        <mxCell id="lLlvU7RibUyMMaEMwurc-21" value="Manage Report" style="rounded=0;whiteSpace=wrap;html=1;fillColor=#dae8fc;strokeColor=#6c8ebf;" vertex="1" parent="1">
          <mxGeometry x="620" y="430" width="180" height="30" as="geometry" />
        </mxCell>
        <mxCell id="lLlvU7RibUyMMaEMwurc-22" value="Manage Teacher Profiles" style="rounded=0;whiteSpace=wrap;html=1;fillColor=#dae8fc;strokeColor=#6c8ebf;" vertex="1" parent="1">
          <mxGeometry x="620" y="380" width="180" height="30" as="geometry" />
        </mxCell>
        <mxCell id="lLlvU7RibUyMMaEMwurc-23" value="Manage Fees Details" style="rounded=0;whiteSpace=wrap;html=1;fillColor=#dae8fc;strokeColor=#6c8ebf;" vertex="1" parent="1">
          <mxGeometry x="620" y="332.5" width="180" height="27.5" as="geometry" />
        </mxCell>
        <mxCell id="lLlvU7RibUyMMaEMwurc-24" value="Manage Student Details" style="rounded=0;whiteSpace=wrap;html=1;fillColor=#dae8fc;strokeColor=#6c8ebf;" vertex="1" parent="1">
          <mxGeometry x="620" y="282" width="180" height="30" as="geometry" />
        </mxCell>
        <mxCell id="lLlvU7RibUyMMaEMwurc-25" value="Manage Class Details" style="rounded=0;whiteSpace=wrap;html=1;fillColor=#dae8fc;strokeColor=#6c8ebf;" vertex="1" parent="1">
          <mxGeometry x="620" y="230" width="180" height="30" as="geometry" />
        </mxCell>
        <mxCell id="lLlvU7RibUyMMaEMwurc-26" value="Manage System Admins" style="rounded=0;whiteSpace=wrap;html=1;fillColor=#dae8fc;strokeColor=#6c8ebf;" vertex="1" parent="1">
          <mxGeometry x="70" y="500" width="150" height="40" as="geometry" />
        </mxCell>
        <mxCell id="lLlvU7RibUyMMaEMwurc-27" value="Manage Roles of User" style="rounded=0;whiteSpace=wrap;html=1;fillColor=#dae8fc;strokeColor=#6c8ebf;" vertex="1" parent="1">
          <mxGeometry x="270" y="500" width="150" height="40" as="geometry" />
        </mxCell>
        <mxCell id="lLlvU7RibUyMMaEMwurc-28" value="Manage User Permission" style="rounded=0;whiteSpace=wrap;html=1;fillColor=#dae8fc;strokeColor=#6c8ebf;" vertex="1" parent="1">
          <mxGeometry x="470" y="500" width="150" height="40" as="geometry" />
        </mxCell>
        <mxCell id="lLlvU7RibUyMMaEMwurc-29" value="" style="endArrow=classic;html=1;rounded=0;entryX=0;entryY=0.5;entryDx=0;entryDy=0;exitX=0.892;exitY=0.238;exitDx=0;exitDy=0;exitPerimeter=0;" edge="1" parent="1" source="lLlvU7RibUyMMaEMwurc-10" target="lLlvU7RibUyMMaEMwurc-20">
          <mxGeometry width="50" height="50" relative="1" as="geometry">
            <mxPoint x="370" y="390" as="sourcePoint" />
            <mxPoint x="420" y="340" as="targetPoint" />
          </mxGeometry>
        </mxCell>
        <mxCell id="lLlvU7RibUyMMaEMwurc-30" value="" style="endArrow=classic;html=1;rounded=0;entryX=0.438;entryY=-0.038;entryDx=0;entryDy=0;entryPerimeter=0;exitX=0.5;exitY=1;exitDx=0;exitDy=0;" edge="1" parent="1" source="lLlvU7RibUyMMaEMwurc-10" target="lLlvU7RibUyMMaEMwurc-28">
          <mxGeometry width="50" height="50" relative="1" as="geometry">
            <mxPoint x="370" y="390" as="sourcePoint" />
            <mxPoint x="420" y="340" as="targetPoint" />
          </mxGeometry>
        </mxCell>
        <mxCell id="lLlvU7RibUyMMaEMwurc-31" value="" style="endArrow=classic;html=1;rounded=0;entryX=0;entryY=0.5;entryDx=0;entryDy=0;exitX=0.762;exitY=0.951;exitDx=0;exitDy=0;exitPerimeter=0;" edge="1" parent="1" source="lLlvU7RibUyMMaEMwurc-10" target="lLlvU7RibUyMMaEMwurc-21">
          <mxGeometry width="50" height="50" relative="1" as="geometry">
            <mxPoint x="450" y="340" as="sourcePoint" />
            <mxPoint x="420" y="340" as="targetPoint" />
          </mxGeometry>
        </mxCell>
        <mxCell id="lLlvU7RibUyMMaEMwurc-32" value="" style="endArrow=classic;html=1;rounded=0;entryX=0;entryY=0.5;entryDx=0;entryDy=0;exitX=1;exitY=1;exitDx=0;exitDy=0;" edge="1" parent="1" source="lLlvU7RibUyMMaEMwurc-10" target="lLlvU7RibUyMMaEMwurc-22">
          <mxGeometry width="50" height="50" relative="1" as="geometry">
            <mxPoint x="490" y="320" as="sourcePoint" />
            <mxPoint x="646" y="380" as="targetPoint" />
          </mxGeometry>
        </mxCell>
        <mxCell id="lLlvU7RibUyMMaEMwurc-33" value="" style="endArrow=classic;html=1;rounded=0;entryX=0;entryY=0.5;entryDx=0;entryDy=0;exitX=1;exitY=0.5;exitDx=0;exitDy=0;" edge="1" parent="1" source="lLlvU7RibUyMMaEMwurc-10" target="lLlvU7RibUyMMaEMwurc-24">
          <mxGeometry width="50" height="50" relative="1" as="geometry">
            <mxPoint x="370" y="390" as="sourcePoint" />
            <mxPoint x="420" y="340" as="targetPoint" />
          </mxGeometry>
        </mxCell>
        <mxCell id="lLlvU7RibUyMMaEMwurc-34" value="" style="endArrow=classic;html=1;rounded=0;entryX=0;entryY=0.5;entryDx=0;entryDy=0;exitX=0.95;exitY=0.688;exitDx=0;exitDy=0;exitPerimeter=0;" edge="1" parent="1" source="lLlvU7RibUyMMaEMwurc-10" target="lLlvU7RibUyMMaEMwurc-23">
          <mxGeometry width="50" height="50" relative="1" as="geometry">
            <mxPoint x="500" y="310" as="sourcePoint" />
            <mxPoint x="420" y="340" as="targetPoint" />
          </mxGeometry>
        </mxCell>
        <mxCell id="lLlvU7RibUyMMaEMwurc-36" value="" style="endArrow=classic;html=1;rounded=0;entryX=0;entryY=0.5;entryDx=0;entryDy=0;exitX=0.984;exitY=0.368;exitDx=0;exitDy=0;exitPerimeter=0;" edge="1" parent="1" source="lLlvU7RibUyMMaEMwurc-10" target="lLlvU7RibUyMMaEMwurc-25">
          <mxGeometry width="50" height="50" relative="1" as="geometry">
            <mxPoint x="370" y="390" as="sourcePoint" />
            <mxPoint x="420" y="340" as="targetPoint" />
          </mxGeometry>
        </mxCell>
        <mxCell id="lLlvU7RibUyMMaEMwurc-38" value="" style="endArrow=classic;html=1;rounded=0;entryX=0.547;entryY=-0.075;entryDx=0;entryDy=0;entryPerimeter=0;exitX=0;exitY=1;exitDx=0;exitDy=0;" edge="1" parent="1" source="lLlvU7RibUyMMaEMwurc-10" target="lLlvU7RibUyMMaEMwurc-27">
          <mxGeometry width="50" height="50" relative="1" as="geometry">
            <mxPoint x="370" y="390" as="sourcePoint" />
            <mxPoint x="420" y="340" as="targetPoint" />
          </mxGeometry>
        </mxCell>
        <mxCell id="lLlvU7RibUyMMaEMwurc-39" value="" style="endArrow=classic;html=1;rounded=0;entryX=0.665;entryY=-0.038;entryDx=0;entryDy=0;entryPerimeter=0;exitX=0.04;exitY=0.784;exitDx=0;exitDy=0;exitPerimeter=0;" edge="1" parent="1" source="lLlvU7RibUyMMaEMwurc-10" target="lLlvU7RibUyMMaEMwurc-26">
          <mxGeometry width="50" height="50" relative="1" as="geometry">
            <mxPoint x="300" y="370" as="sourcePoint" />
            <mxPoint x="420" y="340" as="targetPoint" />
          </mxGeometry>
        </mxCell>
      </root>
    </mxGraphModel>
  </diagram>
</mxfile>
